<svg width="17" height="18" viewBox="0 0 17 18" fill="none" xmlns="http://www.w3.org/2000/svg">
<path d="M16.6191 4.20053C15.5128 4.79903 15.0594 4.88971 13.9712 5.50635C13.4815 5.79653 13.2276 5.47008 13.5722 5.01667C14.3521 4.00103 15.2045 3.4388 16.0569 3.0398C16.4921 2.8403 17 3.13048 17 3.62016C17 3.87407 16.8367 4.09171 16.6191 4.20053Z" fill="#FF6175"/>
<path d="M12.9736 3.60224C12.756 4.1282 12.3751 4.03752 12.357 3.45715C12.357 2.1876 12.6835 1.20824 13.1187 0.37396C13.3364 -0.0613139 13.9167 -0.133862 14.2069 0.247003C14.352 0.446504 14.352 0.71855 14.2613 0.936187C13.7535 2.09692 13.4452 2.44151 12.9736 3.60224Z" fill="#FF6175"/>
<path d="M10.7066 4.12828C9.76346 3.27587 9.27377 2.36905 8.96545 1.48036C8.80223 1.02695 9.12868 0.537271 9.61837 0.591681C9.87228 0.609817 10.0536 0.79118 10.1625 1.02695C10.6703 2.16955 10.7066 2.64109 11.2325 3.78369C11.4683 4.30964 11.1237 4.52728 10.7066 4.12828Z" fill="#FF6175"/>
<path d="M1.6957 14.1936C1.76824 14.1755 1.82265 14.0848 1.78638 14.0123C1.42365 12.9604 1.06092 12.1986 1.51434 11.7633C1.85893 11.4188 2.56625 11.4369 3.11034 11.5094C3.27357 11.5276 3.41866 11.3825 3.38238 11.2193C3.21916 10.4213 3.16475 9.75021 3.56375 9.40561C3.94461 9.06102 4.85143 9.27866 5.54062 9.46003C5.70385 9.4963 5.8308 9.31494 5.72198 9.18798C1.56874 3.63824 0.716331 3.0216 0.843287 2.38682C1.22415 0.500635 7.71699 5.83274 8.31549 6.34056C11.2355 8.80711 12.8677 10.8021 12.8677 10.8021L13.2486 10.3124C13.4662 10.0404 13.702 9.76834 13.9559 9.4963C14.6632 8.7527 15.298 8.31743 15.425 8.22675H15.4431C15.7514 8.00911 16.1686 7.99098 16.5313 8.20861C16.7489 8.33557 16.9121 8.55321 16.9666 8.80711C17.0754 9.22425 16.9122 9.64139 16.5676 9.87716L16.223 10.1129C15.5882 10.6208 14.2642 11.8722 13.829 13.4682C13.7201 13.8853 13.3574 14.1755 12.9221 14.2118C12.904 14.2118 12.8859 14.2118 12.8496 14.2118C12.3962 14.2118 12.0153 13.9216 11.8884 13.4863V13.4682C10.4919 10.4757 6.12099 5.05288 3.14661 3.11228C1.22415 1.86087 1.35111 2.69514 1.67756 3.09414C2.00402 3.51128 3.07407 4.32742 7.28171 9.78648C7.39053 9.93157 7.40867 10.1492 7.29985 10.3124C7.1729 10.4938 6.93712 10.5301 6.75576 10.4394C6.13912 10.1311 5.05094 9.80461 4.68821 10.1129C4.56125 10.2218 4.34361 10.6026 4.81516 11.9628C4.86957 12.0898 4.85144 12.2349 4.77889 12.3437C4.67007 12.5432 4.4343 12.5976 4.2348 12.5251C3.78139 12.3256 2.98338 12.1805 2.72947 12.4344C2.63879 12.5251 2.40302 12.9241 2.98339 14.3206C3.0378 14.4475 3.01966 14.5926 2.94711 14.7196C2.87457 14.8465 2.74761 14.9191 2.60252 14.9191C2.42116 14.9372 1.84079 15.0279 1.71384 15.3544C1.56875 15.6627 1.71383 16.2068 3.21916 17.3312C3.76325 17.7302 3.18289 18.2381 2.62066 17.8753C1.51434 17.168 0.353601 15.4994 0.643784 14.8465C0.879557 14.375 1.33297 14.2843 1.6957 14.1936Z" fill="#21DDB9"/>
</svg>
