<svg width="30" height="30" viewBox="0 0 30 30" fill="none" xmlns="http://www.w3.org/2000/svg">
<rect width="30" height="30" rx="9" fill="url(#paint0_linear_1686_750)"/>
<path fill-rule="evenodd" clip-rule="evenodd" d="M7.5 16.5C7.5 16.0858 7.83579 15.75 8.25 15.75H13.5C13.9142 15.75 14.25 16.0858 14.25 16.5V21.75C14.25 22.1642 13.9142 22.5 13.5 22.5H8.25C7.83579 22.5 7.5 22.1642 7.5 21.75V16.5ZM9 17.25V21H12.75V17.25H9Z" fill="white"/>
<path fill-rule="evenodd" clip-rule="evenodd" d="M7.5 8.25C7.5 7.83579 7.83579 7.5 8.25 7.5H13.5C13.9142 7.5 14.25 7.83579 14.25 8.25V13.5C14.25 13.9142 13.9142 14.25 13.5 14.25H8.25C7.83579 14.25 7.5 13.9142 7.5 13.5V8.25ZM9 9V12.75H12.75V9H9Z" fill="white"/>
<path fill-rule="evenodd" clip-rule="evenodd" d="M15.75 9C15.75 8.58579 16.0858 8.25 16.5 8.25H21.75C22.1642 8.25 22.5 8.58579 22.5 9C22.5 9.41421 22.1642 9.75 21.75 9.75H16.5C16.0858 9.75 15.75 9.41421 15.75 9Z" fill="white"/>
<path fill-rule="evenodd" clip-rule="evenodd" d="M15.75 12.75C15.75 12.3358 16.0858 12 16.5 12H21.75C22.1642 12 22.5 12.3358 22.5 12.75C22.5 13.1642 22.1642 13.5 21.75 13.5H16.5C16.0858 13.5 15.75 13.1642 15.75 12.75Z" fill="white"/>
<path fill-rule="evenodd" clip-rule="evenodd" d="M15.75 17.25C15.75 16.8358 16.0858 16.5 16.5 16.5H21.75C22.1642 16.5 22.5 16.8358 22.5 17.25C22.5 17.6642 22.1642 18 21.75 18H16.5C16.0858 18 15.75 17.6642 15.75 17.25Z" fill="white"/>
<path fill-rule="evenodd" clip-rule="evenodd" d="M15.75 21C15.75 20.5858 16.0858 20.25 16.5 20.25H21.75C22.1642 20.25 22.5 20.5858 22.5 21C22.5 21.4142 22.1642 21.75 21.75 21.75H16.5C16.0858 21.75 15.75 21.4142 15.75 21Z" fill="white"/>
<defs>
<linearGradient id="paint0_linear_1686_750" x1="15" y1="0" x2="15" y2="30" gradientUnits="userSpaceOnUse">
<stop stop-color="#FF73C7"/>
<stop offset="1" stop-color="#F75EBA"/>
</linearGradient>
</defs>
</svg>
